<?xml version="1.0" standalone="no"?>
<!DOCTYPE svg PUBLIC "-//W3C//DTD SVG 20010904//EN"
 "http://www.w3.org/TR/2001/REC-SVG-20010904/DTD/svg10.dtd">
<svg version="1.0" xmlns="http://www.w3.org/2000/svg"
 width="687.000000pt" height="540.000000pt" viewBox="0 0 687.000000 540.000000"
 preserveAspectRatio="xMidYMid meet">
<metadata>
Created by potrace 1.11, written by Peter Selinger 2001-2013
</metadata>
<g transform="translate(0.000000,540.000000) scale(0.100000,-0.100000)"
fill="#000000" stroke="none">
<path d="M6697 5228 c-289 -374 -415 -542 -515 -688 -29 -41 -65 -93 -82 -115
-16 -22 -33 -47 -37 -55 -5 -8 -21 -37 -37 -63 -26 -44 -30 -47 -45 -33 -9 9
-68 33 -131 55 l-115 39 -276 -2 c-320 -3 -315 -1 -356 -94 -52 -118 -90 -188
-172 -317 -48 -74 -102 -162 -121 -197 -50 -89 -229 -265 -358 -351 -56 -37
-104 -72 -107 -77 -4 -6 -14 -10 -24 -10 -10 0 -41 -18 -69 -40 -27 -22 -53
-40 -58 -40 -4 0 -15 -7 -24 -15 -10 -9 -30 -18 -46 -21 -16 -3 -36 -11 -44
-19 -26 -23 -330 -205 -427 -255 -81 -42 -154 -96 -247 -184 -49 -45 -132 -98
-261 -166 -66 -34 -151 -81 -188 -103 -46 -27 -83 -41 -113 -43 -58 -4 -77
-15 -124 -75 -39 -50 -52 -100 -30 -114 15 -9 12 -22 -6 -29 -8 -3 -29 1 -46
10 -69 36 -184 -6 -233 -84 -11 -17 -25 -31 -31 -32 -6 0 -31 13 -55 30 -52
35 -72 37 -120 11 -32 -17 -41 -18 -108 -6 -69 12 -76 15 -130 69 -31 31 -61
56 -66 56 -5 0 -18 8 -29 19 -12 10 -50 36 -86 57 -63 38 -65 40 -60 74 5 30
9 35 30 32 59 -7 270 49 318 85 60 45 77 109 47 179 -16 39 -12 58 23 94 18
20 22 32 18 59 -4 24 0 41 14 59 14 18 20 39 19 76 -2 72 5 88 47 111 62 33
94 69 94 105 0 41 -13 65 -70 125 -26 28 -72 76 -101 108 l-52 57 13 40 c9 26
10 55 5 87 -19 123 -24 151 -33 188 -5 22 -13 48 -17 57 -4 11 0 20 14 28 16
8 21 20 21 53 0 68 -59 169 -146 252 -104 98 -118 110 -154 125 -19 7 -42 19
-50 25 -17 13 -104 44 -192 69 -32 9 -82 23 -110 31 -58 17 -218 34 -315 35
-78 0 -199 -37 -287 -88 -64 -38 -115 -92 -181 -192 -17 -25 -32 -47 -36 -50
-3 -3 -11 -21 -19 -40 -8 -19 -31 -60 -51 -90 -29 -43 -42 -78 -60 -160 -12
-58 -24 -136 -27 -173 -5 -89 29 -246 73 -342 19 -39 37 -84 41 -101 4 -16 13
-38 20 -49 7 -11 15 -37 18 -57 2 -21 7 -41 10 -46 3 -5 19 -75 35 -155 16
-81 33 -152 37 -158 5 -8 -3 -10 -27 -5 -19 4 -69 9 -111 13 -97 7 -119 -5
-138 -74 -8 -26 -27 -77 -42 -113 -16 -35 -28 -76 -27 -90 3 -27 -12 -54 -81
-143 -62 -81 -77 -103 -134 -188 -88 -132 -95 -143 -126 -213 -29 -63 -31 -75
-28 -155 4 -71 12 -107 50 -211 52 -146 62 -206 83 -510 9 -124 21 -272 26
-330 6 -58 14 -157 18 -220 4 -72 13 -126 23 -145 8 -16 23 -75 32 -130 9 -55
18 -109 20 -120 2 -11 9 -53 16 -93 l13 -72 1270 0 1269 0 -5 178 c-5 161 -8
190 -42 322 -46 186 -93 412 -88 427 5 14 55 35 178 75 123 40 440 163 620
240 39 17 113 45 165 63 52 18 193 70 312 114 120 45 222 81 227 81 6 0 17 10
25 22 13 20 12 35 -8 130 l-23 107 23 22 c30 28 31 76 3 131 -17 33 -18 42 -7
50 20 13 266 152 323 182 81 43 161 105 293 226 51 47 102 88 113 92 10 4 19
12 19 17 0 19 41 23 66 6 16 -10 40 -15 67 -13 l42 3 3 65 c2 36 7 69 13 75
12 12 12 117 -2 152 -5 15 -28 49 -50 76 l-40 47 31 0 c38 0 99 25 116 48 19
25 17 76 -3 94 -30 27 -93 38 -211 38 -133 0 -132 -5 -23 111 55 60 90 86 173
132 117 64 126 72 193 177 55 86 121 166 185 227 51 48 34 48 245 -2 220 -52
285 -61 323 -41 17 9 36 25 42 35 12 24 13 68 2 75 -5 3 -7 20 -4 37 4 25 -5
51 -34 106 l-39 72 23 16 c29 21 29 63 -3 125 l-25 49 72 108 c159 242 376
542 601 833 23 30 49 65 57 76 8 12 34 47 58 77 28 38 42 66 42 87 0 65 -33
37 -173 -142z"/>
</g>
</svg>
