<?xml version="1.0" standalone="no"?>
<!DOCTYPE svg PUBLIC "-//W3C//DTD SVG 20010904//EN"
 "http://www.w3.org/TR/2001/REC-SVG-20010904/DTD/svg10.dtd">
<svg version="1.0" xmlns="http://www.w3.org/2000/svg"
 width="200.000000pt" height="700.000000pt" viewBox="0 0 200.000000 700.000000"
 preserveAspectRatio="xMidYMid meet">
<metadata>
Created by potrace 1.11, written by Peter Selinger 2001-2013
</metadata>
<g transform="translate(0.000000,700.000000) scale(0.100000,-0.100000)"
fill="#000000" stroke="none">
<path d="M1094 6926 c-106 -24 -161 -65 -197 -146 -17 -37 -21 -75 -26 -223
l-6 -179 -33 -29 c-40 -36 -106 -40 -143 -10 -21 17 -25 30 -29 116 -6 94 -7
98 -38 126 -28 25 -40 29 -95 29 -34 0 -68 -4 -76 -9 -8 -5 15 -7 55 -4 45 3
77 0 93 -9 22 -12 23 -19 25 -113 2 -142 27 -175 131 -175 54 0 89 15 112 49
15 22 19 56 23 216 5 185 6 191 32 237 52 88 136 118 328 118 169 0 252 -23
312 -87 15 -15 32 -41 38 -58 15 -38 14 -555 -1 -570 -11 -11 -154 -14 -181
-3 -17 7 -18 29 -18 255 0 271 -6 303 -60 330 -31 16 -141 17 -173 2 -46 -21
-52 -43 -57 -234 -5 -176 -6 -181 -34 -233 -55 -98 -138 -132 -325 -132 -179
0 -268 36 -311 124 -28 58 -41 235 -19 263 12 17 12 17 -5 1 -37 -33 -29 -204
14 -287 33 -66 61 -85 215 -151 l30 -12 -25 -11 c-145 -60 -177 -84 -217 -165
-27 -56 -28 -61 -33 -275 -6 -263 4 -247 -147 -247 -95 0 -173 -16 -173 -35 0
-3 6 -3 12 2 7 4 83 10 168 13 l155 5 5 245 c5 231 6 248 28 293 29 57 79 100
152 129 52 21 73 23 384 26 277 3 340 1 402 -13 99 -22 160 -64 197 -137 28
-54 28 -56 28 -233 -1 -166 -3 -183 -25 -231 -31 -67 -94 -129 -165 -163 l-56
-26 -622 -3 c-429 -2 -629 1 -643 8 -13 7 -20 22 -21 43 -1 25 -3 27 -6 9 -7
-35 15 -79 45 -90 32 -12 542 -27 912 -27 223 1 275 4 329 19 129 35 203 92
253 194 l33 67 0 175 c0 148 -3 183 -19 224 -41 107 -145 177 -288 196 -40 5
-148 10 -240 10 -92 0 -169 4 -172 8 -2 4 21 21 52 37 139 73 170 149 171 428
1 92 4 110 20 126 41 41 144 39 187 -4 24 -24 24 -25 24 -252 0 -197 2 -233
18 -263 24 -48 54 -61 135 -58 54 3 72 8 90 26 22 22 22 26 22 290 l0 267 -30
53 c-33 60 -84 100 -160 127 -68 24 -277 30 -361 11z"/>
<path d="M703 5970 c-63 -38 -68 -60 -71 -311 -3 -191 -1 -227 12 -238 11 -9
90 -12 330 -9 357 3 346 1 396 89 23 41 25 55 28 210 4 189 -4 225 -60 259
-31 19 -50 20 -318 20 -265 0 -287 -1 -317 -20z m644 -53 l28 -27 0 -173 c0
-189 -7 -215 -68 -261 -27 -20 -42 -21 -317 -24 -254 -3 -290 -1 -304 13 -14
14 -16 46 -16 214 0 190 1 199 23 232 39 59 44 59 349 57 l278 -3 27 -28z"/>
<path d="M715 5220 c-199 -29 -290 -112 -318 -289 -19 -129 15 -181 121 -181
62 0 109 16 123 42 6 11 14 58 19 105 8 90 31 133 64 120 14 -6 16 -34 16
-220 0 -269 7 -298 90 -379 74 -73 145 -97 310 -105 217 -10 356 29 440 124
61 69 70 114 70 338 0 235 -10 278 -79 346 -56 56 -123 83 -246 98 -99 12
-530 13 -610 1z m710 -35 c76 -20 134 -59 163 -113 23 -41 24 -49 23 -273 -1
-211 -3 -234 -22 -275 -26 -54 -76 -99 -149 -133 -51 -24 -67 -26 -225 -29
-109 -3 -190 1 -228 9 -76 16 -154 64 -192 117 l-30 44 -5 276 c-6 308 -4 304
-71 260 -51 -34 -69 -79 -69 -169 0 -58 -4 -80 -16 -90 -21 -17 -131 -24 -168
-10 l-29 12 6 82 c11 161 68 248 189 286 58 18 91 20 413 20 283 1 362 -2 410
-14z"/>
<path d="M977 5084 c-4 -4 -7 -114 -7 -244 0 -228 1 -239 23 -280 40 -76 61
-85 197 -85 104 0 122 3 147 21 57 42 63 68 63 294 0 221 -3 237 -53 274 -26
19 -44 21 -195 24 -92 2 -170 0 -175 -4z m318 -44 c22 -5 50 -21 63 -35 21
-25 22 -33 22 -223 0 -178 -2 -200 -20 -229 -32 -53 -68 -65 -181 -61 -96 3
-99 4 -131 36 l-33 32 -3 235 -3 235 23 9 c30 13 212 13 263 1z"/>
<path d="M1843 5041 c-53 -5 -85 -16 -72 -23 2 -2 20 -12 39 -22 76 -42 110
-67 105 -77 -4 -5 -28 -20 -53 -33 -26 -13 -58 -33 -72 -45 l-25 -20 36 -1
c20 0 52 -3 70 -6 21 -3 29 -2 22 3 -10 7 -7 17 12 43 32 43 32 63 0 88 -14
11 -25 24 -25 29 0 5 11 20 25 33 27 26 32 41 13 38 -7 0 -41 -4 -75 -7z"/>
<path d="M1434 4256 c-18 -8 -35 -19 -39 -26 -4 -7 4 -4 18 5 18 11 49 17 94
18 113 2 106 22 104 -289 -1 -148 -4 -285 -8 -304 -17 -99 -87 -181 -185 -216
-50 -18 -92 -19 -673 -22 -341 -1 -630 0 -642 3 -17 4 -23 14 -26 43 l-4 37
-1 -36 c-3 -48 22 -77 73 -89 56 -13 1070 -13 1175 0 98 13 189 50 238 99 78
79 92 148 92 468 l0 253 -29 32 c-25 29 -35 32 -92 35 -40 2 -76 -2 -95 -11z"/>
<path d="M1378 4175 c-4 -22 -8 -143 -8 -270 0 -258 -5 -279 -69 -322 l-34
-23 -533 0 c-535 0 -619 -5 -645 -36 -10 -12 -7 -12 17 1 25 13 111 15 592 15
452 0 569 3 595 14 42 17 85 68 92 109 3 18 5 149 3 292 -2 151 -6 243 -10
220z"/>
<path d="M705 2984 c-11 -2 -45 -9 -75 -15 -119 -24 -206 -100 -230 -201 -8
-31 -11 -84 -7 -136 4 -68 11 -96 36 -145 17 -33 31 -65 31 -72 0 -7 -14 -40
-32 -74 -59 -115 -50 -291 21 -388 48 -66 149 -110 283 -124 160 -16 835 -8
871 10 48 25 51 100 4 135 -28 20 -41 21 -450 26 -455 5 -454 5 -482 60 -18
34 -21 167 -4 203 23 52 22 52 484 57 391 5 433 7 458 23 21 13 27 26 27 51 0
49 -8 64 -44 84 -27 15 -79 18 -446 22 -311 4 -421 8 -437 18 -41 23 -55 67
-51 153 3 70 6 82 31 106 l27 28 429 5 c417 5 430 6 458 26 23 17 28 29 28 64
0 35 -5 47 -28 64 -28 21 -38 21 -455 22 -235 1 -436 0 -447 -2z m896 -25 c16
-8 19 -16 13 -42 -3 -18 -11 -37 -16 -44 -7 -9 -122 -13 -448 -15 -425 -3
-439 -4 -467 -24 -50 -37 -65 -79 -60 -170 5 -93 24 -136 70 -161 29 -16 76
-19 464 -23 383 -4 434 -7 449 -21 26 -26 10 -75 -28 -88 -20 -7 -175 -11
-442 -11 -381 0 -414 -2 -452 -19 -54 -25 -68 -64 -62 -177 5 -90 17 -117 72
-158 26 -20 43 -21 467 -26 376 -4 441 -7 449 -20 15 -24 12 -48 -10 -70 -21
-21 -29 -21 -488 -18 -518 4 -527 5 -614 71 -68 52 -82 86 -87 206 -4 126 7
168 61 227 l40 44 -40 45 c-47 54 -62 104 -62 213 0 123 31 188 113 237 86 50
126 53 610 54 301 1 455 -3 468 -10z"/>
<path d="M452 1795 c-40 -18 -52 -48 -52 -134 0 -94 -6 -98 -152 -103 -134 -4
-170 -19 -176 -76 -8 -77 41 -102 198 -102 98 0 112 -2 131 -21 11 -11 19 -30
17 -42 -2 -18 -15 -25 -68 -38 -121 -29 -217 -96 -255 -175 -37 -77 -46 -246
-17 -304 22 -45 75 -64 149 -55 84 10 94 24 109 152 20 177 44 205 183 211 97
4 138 -11 175 -61 19 -26 22 -48 28 -255 8 -276 18 -313 108 -403 49 -50 67
-60 139 -83 79 -25 90 -26 335 -26 163 0 265 4 286 11 59 21 60 31 60 496 0
396 -1 420 -20 450 -19 32 -66 53 -120 53 -40 0 -97 -19 -111 -37 -13 -16 -12
-16 11 0 30 21 157 24 184 4 16 -12 17 -45 16 -457 0 -315 -4 -448 -12 -457
-18 -22 -596 -14 -656 9 -90 34 -149 92 -182 178 -9 24 -15 110 -19 265 -7
257 -14 287 -81 333 -29 19 -46 22 -134 22 -125 0 -160 -15 -195 -84 -20 -38
-26 -69 -30 -151 -3 -57 -9 -107 -13 -111 -12 -11 -109 -24 -137 -18 -14 3
-37 7 -50 10 l-24 5 5 128 c4 116 7 132 33 179 32 59 70 91 153 130 56 26 61
27 252 27 174 -1 201 -3 253 -22 78 -29 131 -74 161 -136 25 -50 26 -59 28
-292 3 -227 5 -242 26 -283 39 -74 63 -82 245 -82 l157 0 -1 393 c-1 215 -5
379 -9 362 -4 -16 -8 -184 -9 -371 -1 -305 -3 -343 -18 -355 -26 -22 -252 -18
-287 4 -58 38 -61 50 -66 312 -5 222 -7 244 -28 290 -45 99 -127 159 -255 188
-38 8 -72 18 -75 22 -4 3 2 23 13 43 l20 37 456 5 c472 5 472 5 501 45 13 17
9 70 -7 92 -9 12 -32 27 -53 33 -23 6 -199 10 -458 10 -313 0 -423 3 -432 12
-7 7 -12 37 -12 68 0 83 -16 128 -53 150 -38 24 -117 26 -165 5z m140 -5 l37
-11 3 -117 3 -117 480 -5 c264 -3 486 -9 493 -13 14 -10 8 -62 -10 -84 -8 -10
-115 -13 -473 -13 -255 0 -470 -3 -479 -6 -9 -4 -16 -18 -16 -35 0 -40 -32
-59 -102 -59 -84 0 -108 12 -108 54 0 22 -6 36 -16 40 -9 3 -78 6 -154 6 -76
0 -145 3 -154 6 -10 4 -16 18 -16 40 0 56 22 64 192 64 l148 0 0 114 c0 122 1
124 54 137 45 10 76 10 118 -1z"/>
<path d="M170 249 c-34 -14 -70 -49 -69 -68 0 -11 3 -8 9 6 16 39 58 58 130
58 95 0 140 -33 126 -91 -19 -74 -217 -84 -253 -13 -10 19 -13 20 -13 6 0 -33
21 -58 63 -78 60 -27 122 -24 185 7 51 25 54 26 92 10 35 -14 109 -16 579 -16
367 0 548 4 570 11 36 13 51 35 51 78 0 38 -27 66 -77 80 -50 14 -1021 14
-1083 0 -94 -21 -99 -21 -143 0 -47 23 -124 27 -167 10z m1420 -32 c20 -10 24
-20 22 -43 -7 -62 23 -59 -607 -59 -519 0 -576 2 -591 16 -21 22 -11 73 19 87
35 17 1124 16 1157 -1z"/>
</g>
</svg>
